<mxfile host="app.diagrams.net" modified="2023-06-15T12:59:19.537Z" agent="Mozilla/5.0 (Windows NT 10.0; Win64; x64; rv:102.0) Gecko/20100101 Firefox/102.0" version="21.4.0" etag="mvwhkxUvxQHLS25HWhn_" type="github">
  <diagram name="Page-1" id="efiSxyvcPWCt6TFxefLS">
    <mxGraphModel>
      <root>
        <mxCell id="0" />
        <mxCell id="1" parent="0" />
      </root>
    </mxGraphModel>
  </diagram>
</mxfile>
